G75*
%MOIN*%
%OFA0B0*%
%FSLAX25Y25*%
%IPPOS*%
%LPD*%
%AMOC8*
5,1,8,0,0,1.08239X$1,22.5*
%
%ADD10C,0.13843*%
%ADD11C,0.06200*%
%ADD12R,0.05512X0.01181*%
%ADD13C,0.00394*%
%ADD14OC8,0.05906*%
%ADD15R,0.06299X0.07098*%
%ADD16R,0.02500X0.05000*%
%ADD17C,0.00600*%
%ADD18C,0.02181*%
%ADD19C,0.01000*%
D10*
X0034563Y0011400D03*
X0034563Y0081400D03*
D11*
X0089563Y0086400D03*
X0099563Y0086400D03*
X0109563Y0086400D03*
X0119563Y0086400D03*
X0129563Y0086400D03*
X0139563Y0086400D03*
X0149563Y0086400D03*
X0159563Y0086400D03*
X0169563Y0086400D03*
X0179563Y0086400D03*
X0189563Y0086400D03*
X0199563Y0086400D03*
X0199563Y0006400D03*
X0189563Y0006400D03*
X0179563Y0006400D03*
X0169563Y0006400D03*
X0159563Y0006400D03*
X0149563Y0006400D03*
X0139563Y0006400D03*
X0129563Y0006400D03*
X0119563Y0006400D03*
X0109563Y0006400D03*
X0099563Y0006400D03*
X0089563Y0006400D03*
X0079563Y0006400D03*
X0069563Y0006400D03*
X0059563Y0006400D03*
X0049563Y0006400D03*
D12*
X0228382Y0025731D03*
X0228382Y0027699D03*
X0228382Y0029668D03*
X0228382Y0031636D03*
X0228382Y0033605D03*
X0228382Y0035573D03*
X0228382Y0037542D03*
X0228382Y0039510D03*
X0228382Y0041479D03*
X0228382Y0043447D03*
X0228382Y0045416D03*
X0228382Y0047384D03*
X0228382Y0049353D03*
X0228382Y0051321D03*
X0228382Y0053290D03*
X0228382Y0055258D03*
X0228382Y0057227D03*
X0228382Y0059195D03*
X0228382Y0061164D03*
X0228382Y0063132D03*
X0228382Y0065101D03*
X0228382Y0067069D03*
X0233500Y0071991D03*
X0233500Y0020809D03*
D13*
X0237831Y0020618D02*
X0228776Y0020618D01*
X0228776Y0020226D02*
X0237831Y0020226D01*
X0237831Y0019834D02*
X0228776Y0019834D01*
X0228776Y0019442D02*
X0237831Y0019442D01*
X0237831Y0019050D02*
X0228776Y0019050D01*
X0228776Y0018657D02*
X0235075Y0018657D01*
X0235075Y0019038D02*
X0235075Y0013526D01*
X0230744Y0013526D01*
X0230744Y0016282D01*
X0228776Y0016282D01*
X0228776Y0023959D01*
X0237831Y0023959D01*
X0237831Y0019038D01*
X0235075Y0019038D01*
X0235075Y0018265D02*
X0228776Y0018265D01*
X0228776Y0017873D02*
X0235075Y0017873D01*
X0235075Y0017481D02*
X0228776Y0017481D01*
X0228776Y0017088D02*
X0235075Y0017088D01*
X0235075Y0016696D02*
X0228776Y0016696D01*
X0228776Y0016304D02*
X0235075Y0016304D01*
X0235075Y0015912D02*
X0230744Y0015912D01*
X0230744Y0015520D02*
X0235075Y0015520D01*
X0235075Y0015127D02*
X0230744Y0015127D01*
X0230744Y0014735D02*
X0235075Y0014735D01*
X0235075Y0014343D02*
X0230744Y0014343D01*
X0230744Y0013951D02*
X0235075Y0013951D01*
X0235075Y0013559D02*
X0230744Y0013559D01*
X0228776Y0021011D02*
X0237831Y0021011D01*
X0237831Y0021403D02*
X0228776Y0021403D01*
X0228776Y0021795D02*
X0237831Y0021795D01*
X0237831Y0022187D02*
X0228776Y0022187D01*
X0228776Y0022579D02*
X0237831Y0022579D01*
X0237831Y0022972D02*
X0228776Y0022972D01*
X0228776Y0023364D02*
X0237831Y0023364D01*
X0237831Y0023756D02*
X0228776Y0023756D01*
X0228776Y0068841D02*
X0228776Y0076518D01*
X0230744Y0076518D01*
X0230744Y0079274D01*
X0235075Y0079274D01*
X0235075Y0073762D01*
X0237831Y0073762D01*
X0237831Y0068841D01*
X0228776Y0068841D01*
X0228776Y0068860D02*
X0237831Y0068860D01*
X0237831Y0069253D02*
X0228776Y0069253D01*
X0228776Y0069645D02*
X0237831Y0069645D01*
X0237831Y0070037D02*
X0228776Y0070037D01*
X0228776Y0070429D02*
X0237831Y0070429D01*
X0237831Y0070822D02*
X0228776Y0070822D01*
X0228776Y0071214D02*
X0237831Y0071214D01*
X0237831Y0071606D02*
X0228776Y0071606D01*
X0228776Y0071998D02*
X0237831Y0071998D01*
X0237831Y0072390D02*
X0228776Y0072390D01*
X0228776Y0072783D02*
X0237831Y0072783D01*
X0237831Y0073175D02*
X0228776Y0073175D01*
X0228776Y0073567D02*
X0237831Y0073567D01*
X0235075Y0073959D02*
X0228776Y0073959D01*
X0228776Y0074351D02*
X0235075Y0074351D01*
X0235075Y0074744D02*
X0228776Y0074744D01*
X0228776Y0075136D02*
X0235075Y0075136D01*
X0235075Y0075528D02*
X0228776Y0075528D01*
X0228776Y0075920D02*
X0235075Y0075920D01*
X0235075Y0076313D02*
X0228776Y0076313D01*
X0230744Y0076705D02*
X0235075Y0076705D01*
X0235075Y0077097D02*
X0230744Y0077097D01*
X0230744Y0077489D02*
X0235075Y0077489D01*
X0235075Y0077881D02*
X0230744Y0077881D01*
X0230744Y0078274D02*
X0235075Y0078274D01*
X0235075Y0078666D02*
X0230744Y0078666D01*
X0230744Y0079058D02*
X0235075Y0079058D01*
D14*
X0038063Y0051400D03*
X0038063Y0041400D03*
D15*
X0048965Y0051400D03*
X0060161Y0051400D03*
D16*
X0159666Y0055150D03*
X0163210Y0055150D03*
X0163210Y0063900D03*
X0159666Y0063900D03*
D17*
X0159563Y0064003D01*
X0159563Y0086400D01*
X0169563Y0086400D02*
X0169563Y0076400D01*
X0194642Y0051321D01*
X0228382Y0051321D01*
X0228382Y0049353D02*
X0156610Y0049353D01*
X0149563Y0056400D01*
X0149563Y0086400D01*
X0139563Y0086400D02*
X0139563Y0056400D01*
X0143000Y0052962D01*
X0145188Y0055150D01*
X0143000Y0052962D02*
X0148579Y0047384D01*
X0228382Y0047384D01*
X0228382Y0045416D02*
X0140547Y0045416D01*
X0129563Y0056400D01*
X0129563Y0086400D01*
X0119563Y0086400D02*
X0119563Y0050150D01*
X0141438Y0028275D01*
X0139563Y0016400D02*
X0139563Y0006400D01*
X0149563Y0006400D02*
X0149563Y0016400D01*
X0174642Y0041479D01*
X0228382Y0041479D01*
X0228382Y0043447D02*
X0166610Y0043447D01*
X0139563Y0016400D01*
X0159563Y0016400D02*
X0159563Y0006400D01*
X0169563Y0006400D02*
X0169563Y0016400D01*
X0190705Y0037542D01*
X0228382Y0037542D01*
X0228382Y0039510D02*
X0182673Y0039510D01*
X0159563Y0016400D01*
X0179563Y0016400D02*
X0179563Y0006400D01*
X0189563Y0006400D02*
X0189563Y0016400D01*
X0206768Y0033605D01*
X0228382Y0033605D01*
X0228382Y0035573D02*
X0198736Y0035573D01*
X0179563Y0016400D01*
X0199563Y0016400D02*
X0214799Y0031636D01*
X0228382Y0031636D01*
X0228382Y0029668D02*
X0222831Y0029668D01*
X0222063Y0029525D01*
X0224281Y0027699D02*
X0223867Y0027286D01*
X0219539Y0027286D01*
X0219528Y0027275D01*
X0218688Y0027275D01*
X0217688Y0028275D01*
X0218264Y0027699D01*
X0222063Y0025150D02*
X0222644Y0025731D01*
X0228382Y0025731D01*
X0228382Y0027699D02*
X0224281Y0027699D01*
X0199563Y0016400D02*
X0199563Y0006400D01*
X0200798Y0053290D02*
X0198938Y0055150D01*
X0200798Y0053290D02*
X0228382Y0053290D01*
X0228382Y0055258D02*
X0205705Y0055258D01*
X0179563Y0081400D01*
X0179563Y0086400D01*
X0222063Y0067650D02*
X0222644Y0067069D01*
X0228382Y0067069D01*
X0228382Y0065101D02*
X0222014Y0065101D01*
X0222063Y0065150D01*
X0183938Y0055150D02*
X0163210Y0055150D01*
X0163210Y0063900D01*
X0159666Y0055150D02*
X0155813Y0055150D01*
D18*
X0155813Y0055150D03*
X0145188Y0055150D03*
X0183938Y0055150D03*
X0198938Y0055150D03*
X0222063Y0065150D03*
X0222063Y0067650D03*
X0205813Y0072650D03*
X0205813Y0077650D03*
X0222063Y0029525D03*
X0217688Y0028275D03*
X0222063Y0025150D03*
X0141438Y0028275D03*
X0065813Y0072650D03*
X0064563Y0077650D03*
D19*
X0060161Y0073248D01*
X0060161Y0051400D01*
X0048965Y0051400D02*
X0038063Y0051400D01*
X0059563Y0036400D02*
X0065813Y0042650D01*
X0065813Y0072650D01*
X0059563Y0036400D02*
X0059563Y0006400D01*
X0205813Y0072650D02*
X0219268Y0059195D01*
X0228382Y0059195D01*
X0228382Y0061164D01*
X0228382Y0063132D02*
X0223795Y0063132D01*
X0223313Y0062650D01*
X0220813Y0062650D01*
X0205813Y0077650D01*
M02*
