G75*
%MOIN*%
%OFA0B0*%
%FSLAX25Y25*%
%IPPOS*%
%LPD*%
%AMOC8*
5,1,8,0,0,1.08239X$1,22.5*
%
%ADD10C,0.00000*%
D10*
X0024563Y0011400D02*
X0024563Y0081400D01*
X0024566Y0081642D01*
X0024575Y0081883D01*
X0024589Y0082124D01*
X0024610Y0082365D01*
X0024636Y0082605D01*
X0024668Y0082845D01*
X0024706Y0083084D01*
X0024749Y0083321D01*
X0024799Y0083558D01*
X0024854Y0083793D01*
X0024914Y0084027D01*
X0024981Y0084259D01*
X0025052Y0084490D01*
X0025130Y0084719D01*
X0025213Y0084946D01*
X0025301Y0085171D01*
X0025395Y0085394D01*
X0025494Y0085614D01*
X0025599Y0085832D01*
X0025708Y0086047D01*
X0025823Y0086260D01*
X0025943Y0086470D01*
X0026068Y0086676D01*
X0026198Y0086880D01*
X0026333Y0087081D01*
X0026473Y0087278D01*
X0026617Y0087472D01*
X0026766Y0087662D01*
X0026920Y0087848D01*
X0027078Y0088031D01*
X0027240Y0088210D01*
X0027407Y0088385D01*
X0027578Y0088556D01*
X0027753Y0088723D01*
X0027932Y0088885D01*
X0028115Y0089043D01*
X0028301Y0089197D01*
X0028491Y0089346D01*
X0028685Y0089490D01*
X0028882Y0089630D01*
X0029083Y0089765D01*
X0029287Y0089895D01*
X0029493Y0090020D01*
X0029703Y0090140D01*
X0029916Y0090255D01*
X0030131Y0090364D01*
X0030349Y0090469D01*
X0030569Y0090568D01*
X0030792Y0090662D01*
X0031017Y0090750D01*
X0031244Y0090833D01*
X0031473Y0090911D01*
X0031704Y0090982D01*
X0031936Y0091049D01*
X0032170Y0091109D01*
X0032405Y0091164D01*
X0032642Y0091214D01*
X0032879Y0091257D01*
X0033118Y0091295D01*
X0033358Y0091327D01*
X0033598Y0091353D01*
X0033839Y0091374D01*
X0034080Y0091388D01*
X0034321Y0091397D01*
X0034563Y0091400D01*
X0239563Y0091400D01*
X0210232Y0083900D02*
X0210234Y0084031D01*
X0210240Y0084163D01*
X0210250Y0084294D01*
X0210264Y0084425D01*
X0210282Y0084555D01*
X0210304Y0084684D01*
X0210329Y0084813D01*
X0210359Y0084941D01*
X0210393Y0085068D01*
X0210430Y0085195D01*
X0210471Y0085319D01*
X0210516Y0085443D01*
X0210565Y0085565D01*
X0210617Y0085686D01*
X0210673Y0085804D01*
X0210733Y0085922D01*
X0210796Y0086037D01*
X0210863Y0086150D01*
X0210933Y0086262D01*
X0211006Y0086371D01*
X0211082Y0086477D01*
X0211162Y0086582D01*
X0211245Y0086684D01*
X0211331Y0086783D01*
X0211420Y0086880D01*
X0211512Y0086974D01*
X0211607Y0087065D01*
X0211704Y0087154D01*
X0211804Y0087239D01*
X0211907Y0087321D01*
X0212012Y0087400D01*
X0212119Y0087476D01*
X0212229Y0087548D01*
X0212341Y0087617D01*
X0212455Y0087683D01*
X0212570Y0087745D01*
X0212688Y0087804D01*
X0212807Y0087859D01*
X0212928Y0087911D01*
X0213051Y0087958D01*
X0213175Y0088002D01*
X0213300Y0088043D01*
X0213426Y0088079D01*
X0213554Y0088112D01*
X0213682Y0088140D01*
X0213811Y0088165D01*
X0213941Y0088186D01*
X0214071Y0088203D01*
X0214202Y0088216D01*
X0214333Y0088225D01*
X0214464Y0088230D01*
X0214596Y0088231D01*
X0214727Y0088228D01*
X0214859Y0088221D01*
X0214990Y0088210D01*
X0215120Y0088195D01*
X0215250Y0088176D01*
X0215380Y0088153D01*
X0215508Y0088127D01*
X0215636Y0088096D01*
X0215763Y0088061D01*
X0215889Y0088023D01*
X0216013Y0087981D01*
X0216137Y0087935D01*
X0216258Y0087885D01*
X0216378Y0087832D01*
X0216497Y0087775D01*
X0216614Y0087715D01*
X0216728Y0087651D01*
X0216841Y0087583D01*
X0216952Y0087512D01*
X0217061Y0087438D01*
X0217167Y0087361D01*
X0217271Y0087280D01*
X0217372Y0087197D01*
X0217471Y0087110D01*
X0217567Y0087020D01*
X0217660Y0086927D01*
X0217751Y0086832D01*
X0217838Y0086734D01*
X0217923Y0086633D01*
X0218004Y0086530D01*
X0218082Y0086424D01*
X0218157Y0086316D01*
X0218229Y0086206D01*
X0218297Y0086094D01*
X0218362Y0085980D01*
X0218423Y0085863D01*
X0218481Y0085745D01*
X0218535Y0085625D01*
X0218586Y0085504D01*
X0218633Y0085381D01*
X0218676Y0085257D01*
X0218715Y0085132D01*
X0218751Y0085005D01*
X0218782Y0084877D01*
X0218810Y0084749D01*
X0218834Y0084620D01*
X0218854Y0084490D01*
X0218870Y0084359D01*
X0218882Y0084228D01*
X0218890Y0084097D01*
X0218894Y0083966D01*
X0218894Y0083834D01*
X0218890Y0083703D01*
X0218882Y0083572D01*
X0218870Y0083441D01*
X0218854Y0083310D01*
X0218834Y0083180D01*
X0218810Y0083051D01*
X0218782Y0082923D01*
X0218751Y0082795D01*
X0218715Y0082668D01*
X0218676Y0082543D01*
X0218633Y0082419D01*
X0218586Y0082296D01*
X0218535Y0082175D01*
X0218481Y0082055D01*
X0218423Y0081937D01*
X0218362Y0081820D01*
X0218297Y0081706D01*
X0218229Y0081594D01*
X0218157Y0081484D01*
X0218082Y0081376D01*
X0218004Y0081270D01*
X0217923Y0081167D01*
X0217838Y0081066D01*
X0217751Y0080968D01*
X0217660Y0080873D01*
X0217567Y0080780D01*
X0217471Y0080690D01*
X0217372Y0080603D01*
X0217271Y0080520D01*
X0217167Y0080439D01*
X0217061Y0080362D01*
X0216952Y0080288D01*
X0216841Y0080217D01*
X0216729Y0080149D01*
X0216614Y0080085D01*
X0216497Y0080025D01*
X0216378Y0079968D01*
X0216258Y0079915D01*
X0216137Y0079865D01*
X0216013Y0079819D01*
X0215889Y0079777D01*
X0215763Y0079739D01*
X0215636Y0079704D01*
X0215508Y0079673D01*
X0215380Y0079647D01*
X0215250Y0079624D01*
X0215120Y0079605D01*
X0214990Y0079590D01*
X0214859Y0079579D01*
X0214727Y0079572D01*
X0214596Y0079569D01*
X0214464Y0079570D01*
X0214333Y0079575D01*
X0214202Y0079584D01*
X0214071Y0079597D01*
X0213941Y0079614D01*
X0213811Y0079635D01*
X0213682Y0079660D01*
X0213554Y0079688D01*
X0213426Y0079721D01*
X0213300Y0079757D01*
X0213175Y0079798D01*
X0213051Y0079842D01*
X0212928Y0079889D01*
X0212807Y0079941D01*
X0212688Y0079996D01*
X0212570Y0080055D01*
X0212455Y0080117D01*
X0212341Y0080183D01*
X0212229Y0080252D01*
X0212119Y0080324D01*
X0212012Y0080400D01*
X0211907Y0080479D01*
X0211804Y0080561D01*
X0211704Y0080646D01*
X0211607Y0080735D01*
X0211512Y0080826D01*
X0211420Y0080920D01*
X0211331Y0081017D01*
X0211245Y0081116D01*
X0211162Y0081218D01*
X0211082Y0081323D01*
X0211006Y0081429D01*
X0210933Y0081538D01*
X0210863Y0081650D01*
X0210796Y0081763D01*
X0210733Y0081878D01*
X0210673Y0081996D01*
X0210617Y0082114D01*
X0210565Y0082235D01*
X0210516Y0082357D01*
X0210471Y0082481D01*
X0210430Y0082605D01*
X0210393Y0082732D01*
X0210359Y0082859D01*
X0210329Y0082987D01*
X0210304Y0083116D01*
X0210282Y0083245D01*
X0210264Y0083375D01*
X0210250Y0083506D01*
X0210240Y0083637D01*
X0210234Y0083769D01*
X0210232Y0083900D01*
X0239563Y0091400D02*
X0239805Y0091397D01*
X0240046Y0091388D01*
X0240287Y0091374D01*
X0240528Y0091353D01*
X0240768Y0091327D01*
X0241008Y0091295D01*
X0241247Y0091257D01*
X0241484Y0091214D01*
X0241721Y0091164D01*
X0241956Y0091109D01*
X0242190Y0091049D01*
X0242422Y0090982D01*
X0242653Y0090911D01*
X0242882Y0090833D01*
X0243109Y0090750D01*
X0243334Y0090662D01*
X0243557Y0090568D01*
X0243777Y0090469D01*
X0243995Y0090364D01*
X0244210Y0090255D01*
X0244423Y0090140D01*
X0244633Y0090020D01*
X0244839Y0089895D01*
X0245043Y0089765D01*
X0245244Y0089630D01*
X0245441Y0089490D01*
X0245635Y0089346D01*
X0245825Y0089197D01*
X0246011Y0089043D01*
X0246194Y0088885D01*
X0246373Y0088723D01*
X0246548Y0088556D01*
X0246719Y0088385D01*
X0246886Y0088210D01*
X0247048Y0088031D01*
X0247206Y0087848D01*
X0247360Y0087662D01*
X0247509Y0087472D01*
X0247653Y0087278D01*
X0247793Y0087081D01*
X0247928Y0086880D01*
X0248058Y0086676D01*
X0248183Y0086470D01*
X0248303Y0086260D01*
X0248418Y0086047D01*
X0248527Y0085832D01*
X0248632Y0085614D01*
X0248731Y0085394D01*
X0248825Y0085171D01*
X0248913Y0084946D01*
X0248996Y0084719D01*
X0249074Y0084490D01*
X0249145Y0084259D01*
X0249212Y0084027D01*
X0249272Y0083793D01*
X0249327Y0083558D01*
X0249377Y0083321D01*
X0249420Y0083084D01*
X0249458Y0082845D01*
X0249490Y0082605D01*
X0249516Y0082365D01*
X0249537Y0082124D01*
X0249551Y0081883D01*
X0249560Y0081642D01*
X0249563Y0081400D01*
X0249563Y0011400D01*
X0249560Y0011158D01*
X0249551Y0010917D01*
X0249537Y0010676D01*
X0249516Y0010435D01*
X0249490Y0010195D01*
X0249458Y0009955D01*
X0249420Y0009716D01*
X0249377Y0009479D01*
X0249327Y0009242D01*
X0249272Y0009007D01*
X0249212Y0008773D01*
X0249145Y0008541D01*
X0249074Y0008310D01*
X0248996Y0008081D01*
X0248913Y0007854D01*
X0248825Y0007629D01*
X0248731Y0007406D01*
X0248632Y0007186D01*
X0248527Y0006968D01*
X0248418Y0006753D01*
X0248303Y0006540D01*
X0248183Y0006330D01*
X0248058Y0006124D01*
X0247928Y0005920D01*
X0247793Y0005719D01*
X0247653Y0005522D01*
X0247509Y0005328D01*
X0247360Y0005138D01*
X0247206Y0004952D01*
X0247048Y0004769D01*
X0246886Y0004590D01*
X0246719Y0004415D01*
X0246548Y0004244D01*
X0246373Y0004077D01*
X0246194Y0003915D01*
X0246011Y0003757D01*
X0245825Y0003603D01*
X0245635Y0003454D01*
X0245441Y0003310D01*
X0245244Y0003170D01*
X0245043Y0003035D01*
X0244839Y0002905D01*
X0244633Y0002780D01*
X0244423Y0002660D01*
X0244210Y0002545D01*
X0243995Y0002436D01*
X0243777Y0002331D01*
X0243557Y0002232D01*
X0243334Y0002138D01*
X0243109Y0002050D01*
X0242882Y0001967D01*
X0242653Y0001889D01*
X0242422Y0001818D01*
X0242190Y0001751D01*
X0241956Y0001691D01*
X0241721Y0001636D01*
X0241484Y0001586D01*
X0241247Y0001543D01*
X0241008Y0001505D01*
X0240768Y0001473D01*
X0240528Y0001447D01*
X0240287Y0001426D01*
X0240046Y0001412D01*
X0239805Y0001403D01*
X0239563Y0001400D01*
X0034563Y0001400D01*
X0034321Y0001403D01*
X0034080Y0001412D01*
X0033839Y0001426D01*
X0033598Y0001447D01*
X0033358Y0001473D01*
X0033118Y0001505D01*
X0032879Y0001543D01*
X0032642Y0001586D01*
X0032405Y0001636D01*
X0032170Y0001691D01*
X0031936Y0001751D01*
X0031704Y0001818D01*
X0031473Y0001889D01*
X0031244Y0001967D01*
X0031017Y0002050D01*
X0030792Y0002138D01*
X0030569Y0002232D01*
X0030349Y0002331D01*
X0030131Y0002436D01*
X0029916Y0002545D01*
X0029703Y0002660D01*
X0029493Y0002780D01*
X0029287Y0002905D01*
X0029083Y0003035D01*
X0028882Y0003170D01*
X0028685Y0003310D01*
X0028491Y0003454D01*
X0028301Y0003603D01*
X0028115Y0003757D01*
X0027932Y0003915D01*
X0027753Y0004077D01*
X0027578Y0004244D01*
X0027407Y0004415D01*
X0027240Y0004590D01*
X0027078Y0004769D01*
X0026920Y0004952D01*
X0026766Y0005138D01*
X0026617Y0005328D01*
X0026473Y0005522D01*
X0026333Y0005719D01*
X0026198Y0005920D01*
X0026068Y0006124D01*
X0025943Y0006330D01*
X0025823Y0006540D01*
X0025708Y0006753D01*
X0025599Y0006968D01*
X0025494Y0007186D01*
X0025395Y0007406D01*
X0025301Y0007629D01*
X0025213Y0007854D01*
X0025130Y0008081D01*
X0025052Y0008310D01*
X0024981Y0008541D01*
X0024914Y0008773D01*
X0024854Y0009007D01*
X0024799Y0009242D01*
X0024749Y0009479D01*
X0024706Y0009716D01*
X0024668Y0009955D01*
X0024636Y0010195D01*
X0024610Y0010435D01*
X0024589Y0010676D01*
X0024575Y0010917D01*
X0024566Y0011158D01*
X0024563Y0011400D01*
X0210232Y0008650D02*
X0210234Y0008781D01*
X0210240Y0008913D01*
X0210250Y0009044D01*
X0210264Y0009175D01*
X0210282Y0009305D01*
X0210304Y0009434D01*
X0210329Y0009563D01*
X0210359Y0009691D01*
X0210393Y0009818D01*
X0210430Y0009945D01*
X0210471Y0010069D01*
X0210516Y0010193D01*
X0210565Y0010315D01*
X0210617Y0010436D01*
X0210673Y0010554D01*
X0210733Y0010672D01*
X0210796Y0010787D01*
X0210863Y0010900D01*
X0210933Y0011012D01*
X0211006Y0011121D01*
X0211082Y0011227D01*
X0211162Y0011332D01*
X0211245Y0011434D01*
X0211331Y0011533D01*
X0211420Y0011630D01*
X0211512Y0011724D01*
X0211607Y0011815D01*
X0211704Y0011904D01*
X0211804Y0011989D01*
X0211907Y0012071D01*
X0212012Y0012150D01*
X0212119Y0012226D01*
X0212229Y0012298D01*
X0212341Y0012367D01*
X0212455Y0012433D01*
X0212570Y0012495D01*
X0212688Y0012554D01*
X0212807Y0012609D01*
X0212928Y0012661D01*
X0213051Y0012708D01*
X0213175Y0012752D01*
X0213300Y0012793D01*
X0213426Y0012829D01*
X0213554Y0012862D01*
X0213682Y0012890D01*
X0213811Y0012915D01*
X0213941Y0012936D01*
X0214071Y0012953D01*
X0214202Y0012966D01*
X0214333Y0012975D01*
X0214464Y0012980D01*
X0214596Y0012981D01*
X0214727Y0012978D01*
X0214859Y0012971D01*
X0214990Y0012960D01*
X0215120Y0012945D01*
X0215250Y0012926D01*
X0215380Y0012903D01*
X0215508Y0012877D01*
X0215636Y0012846D01*
X0215763Y0012811D01*
X0215889Y0012773D01*
X0216013Y0012731D01*
X0216137Y0012685D01*
X0216258Y0012635D01*
X0216378Y0012582D01*
X0216497Y0012525D01*
X0216614Y0012465D01*
X0216728Y0012401D01*
X0216841Y0012333D01*
X0216952Y0012262D01*
X0217061Y0012188D01*
X0217167Y0012111D01*
X0217271Y0012030D01*
X0217372Y0011947D01*
X0217471Y0011860D01*
X0217567Y0011770D01*
X0217660Y0011677D01*
X0217751Y0011582D01*
X0217838Y0011484D01*
X0217923Y0011383D01*
X0218004Y0011280D01*
X0218082Y0011174D01*
X0218157Y0011066D01*
X0218229Y0010956D01*
X0218297Y0010844D01*
X0218362Y0010730D01*
X0218423Y0010613D01*
X0218481Y0010495D01*
X0218535Y0010375D01*
X0218586Y0010254D01*
X0218633Y0010131D01*
X0218676Y0010007D01*
X0218715Y0009882D01*
X0218751Y0009755D01*
X0218782Y0009627D01*
X0218810Y0009499D01*
X0218834Y0009370D01*
X0218854Y0009240D01*
X0218870Y0009109D01*
X0218882Y0008978D01*
X0218890Y0008847D01*
X0218894Y0008716D01*
X0218894Y0008584D01*
X0218890Y0008453D01*
X0218882Y0008322D01*
X0218870Y0008191D01*
X0218854Y0008060D01*
X0218834Y0007930D01*
X0218810Y0007801D01*
X0218782Y0007673D01*
X0218751Y0007545D01*
X0218715Y0007418D01*
X0218676Y0007293D01*
X0218633Y0007169D01*
X0218586Y0007046D01*
X0218535Y0006925D01*
X0218481Y0006805D01*
X0218423Y0006687D01*
X0218362Y0006570D01*
X0218297Y0006456D01*
X0218229Y0006344D01*
X0218157Y0006234D01*
X0218082Y0006126D01*
X0218004Y0006020D01*
X0217923Y0005917D01*
X0217838Y0005816D01*
X0217751Y0005718D01*
X0217660Y0005623D01*
X0217567Y0005530D01*
X0217471Y0005440D01*
X0217372Y0005353D01*
X0217271Y0005270D01*
X0217167Y0005189D01*
X0217061Y0005112D01*
X0216952Y0005038D01*
X0216841Y0004967D01*
X0216729Y0004899D01*
X0216614Y0004835D01*
X0216497Y0004775D01*
X0216378Y0004718D01*
X0216258Y0004665D01*
X0216137Y0004615D01*
X0216013Y0004569D01*
X0215889Y0004527D01*
X0215763Y0004489D01*
X0215636Y0004454D01*
X0215508Y0004423D01*
X0215380Y0004397D01*
X0215250Y0004374D01*
X0215120Y0004355D01*
X0214990Y0004340D01*
X0214859Y0004329D01*
X0214727Y0004322D01*
X0214596Y0004319D01*
X0214464Y0004320D01*
X0214333Y0004325D01*
X0214202Y0004334D01*
X0214071Y0004347D01*
X0213941Y0004364D01*
X0213811Y0004385D01*
X0213682Y0004410D01*
X0213554Y0004438D01*
X0213426Y0004471D01*
X0213300Y0004507D01*
X0213175Y0004548D01*
X0213051Y0004592D01*
X0212928Y0004639D01*
X0212807Y0004691D01*
X0212688Y0004746D01*
X0212570Y0004805D01*
X0212455Y0004867D01*
X0212341Y0004933D01*
X0212229Y0005002D01*
X0212119Y0005074D01*
X0212012Y0005150D01*
X0211907Y0005229D01*
X0211804Y0005311D01*
X0211704Y0005396D01*
X0211607Y0005485D01*
X0211512Y0005576D01*
X0211420Y0005670D01*
X0211331Y0005767D01*
X0211245Y0005866D01*
X0211162Y0005968D01*
X0211082Y0006073D01*
X0211006Y0006179D01*
X0210933Y0006288D01*
X0210863Y0006400D01*
X0210796Y0006513D01*
X0210733Y0006628D01*
X0210673Y0006746D01*
X0210617Y0006864D01*
X0210565Y0006985D01*
X0210516Y0007107D01*
X0210471Y0007231D01*
X0210430Y0007355D01*
X0210393Y0007482D01*
X0210359Y0007609D01*
X0210329Y0007737D01*
X0210304Y0007866D01*
X0210282Y0007995D01*
X0210264Y0008125D01*
X0210250Y0008256D01*
X0210240Y0008387D01*
X0210234Y0008519D01*
X0210232Y0008650D01*
M02*
