%
M48
M72
T01C0.0118
T02C0.0354
T03C0.0394
T04C0.0866
T05C0.0984
%
T01
X14144Y2828
X14519Y5515
X15581Y5515
X18394Y5515
X19894Y5515
X22206Y6515
X22206Y6765
X20581Y7265
X20581Y7765
X22206Y2953
X21769Y2828
X22206Y2515
X6581Y7265
X6456Y7765
T02
X8956Y8640
X9956Y8640
X10956Y8640
X11956Y8640
X12956Y8640
X13956Y8640
X14956Y8640
X15956Y8640
X16956Y8640
X17956Y8640
X18956Y8640
X19956Y8640
X19956Y640
X18956Y640
X17956Y640
X16956Y640
X15956Y640
X14956Y640
X13956Y640
X12956Y640
X11956Y640
X10956Y640
X9956Y640
X8956Y640
X7956Y640
X6956Y640
X5956Y640
X4956Y640
T03
X3806Y4140
X3806Y5140
T04
X21456Y8390
X21456Y865
T05
X3456Y1140
X3456Y8140
M30
