G75*
%MOIN*%
%OFA0B0*%
%FSLAX25Y25*%
%IPPOS*%
%LPD*%
%AMOC8*
5,1,8,0,0,1.08239X$1,22.5*
%
%ADD10C,0.09161*%
%ADD11C,0.14343*%
%ADD12C,0.06700*%
%ADD13OC8,0.06406*%
%ADD14C,0.02681*%
D10*
X0214563Y0008650D03*
X0214563Y0083900D03*
D11*
X0034563Y0011400D03*
X0034563Y0081400D03*
D12*
X0089563Y0086400D03*
X0099563Y0086400D03*
X0109563Y0086400D03*
X0119563Y0086400D03*
X0129563Y0086400D03*
X0139563Y0086400D03*
X0149563Y0086400D03*
X0159563Y0086400D03*
X0169563Y0086400D03*
X0179563Y0086400D03*
X0189563Y0086400D03*
X0199563Y0086400D03*
X0199563Y0006400D03*
X0189563Y0006400D03*
X0179563Y0006400D03*
X0169563Y0006400D03*
X0159563Y0006400D03*
X0149563Y0006400D03*
X0139563Y0006400D03*
X0129563Y0006400D03*
X0119563Y0006400D03*
X0109563Y0006400D03*
X0099563Y0006400D03*
X0089563Y0006400D03*
X0079563Y0006400D03*
X0069563Y0006400D03*
X0059563Y0006400D03*
X0049563Y0006400D03*
D13*
X0038063Y0041400D03*
X0038063Y0051400D03*
D14*
X0065813Y0072650D03*
X0064563Y0077650D03*
X0145188Y0055150D03*
X0155813Y0055150D03*
X0183938Y0055150D03*
X0198938Y0055150D03*
X0222063Y0065150D03*
X0222063Y0067650D03*
X0205813Y0072650D03*
X0205813Y0077650D03*
X0222063Y0029525D03*
X0217688Y0028275D03*
X0222063Y0025150D03*
X0141438Y0028275D03*
M02*
