G75*
%MOIN*%
%OFA0B0*%
%FSLAX25Y25*%
%IPPOS*%
%LPD*%
%AMOC8*
5,1,8,0,0,1.08239X$1,22.5*
%
%ADD10C,0.00500*%
%ADD11C,0.00400*%
%ADD12C,0.00800*%
D10*
X0045393Y0011050D02*
X0045393Y0013752D01*
X0046744Y0013752D01*
X0047195Y0013302D01*
X0047195Y0012401D01*
X0046744Y0011951D01*
X0045393Y0011951D01*
X0046294Y0011951D02*
X0047195Y0011050D01*
X0048340Y0011500D02*
X0048790Y0011050D01*
X0049691Y0011050D01*
X0050141Y0011500D01*
X0050141Y0011951D01*
X0049691Y0012401D01*
X0048790Y0012401D01*
X0048340Y0012852D01*
X0048340Y0013302D01*
X0048790Y0013752D01*
X0049691Y0013752D01*
X0050141Y0013302D01*
X0051286Y0013752D02*
X0053088Y0013752D01*
X0052187Y0013752D02*
X0052187Y0011050D01*
X0056866Y0011500D02*
X0057317Y0011050D01*
X0058218Y0011050D01*
X0058668Y0011500D01*
X0058668Y0011951D01*
X0058218Y0012401D01*
X0057767Y0012401D01*
X0058218Y0012401D02*
X0058668Y0012852D01*
X0058668Y0013302D01*
X0058218Y0013752D01*
X0057317Y0013752D01*
X0056866Y0013302D01*
X0059813Y0013752D02*
X0059813Y0011951D01*
X0060714Y0011050D01*
X0061615Y0011951D01*
X0061615Y0013752D01*
X0066866Y0013752D02*
X0068668Y0011050D01*
X0068668Y0013752D01*
X0069813Y0013302D02*
X0069813Y0011500D01*
X0070263Y0011050D01*
X0071164Y0011050D01*
X0071615Y0011500D01*
X0071615Y0013302D02*
X0071164Y0013752D01*
X0070263Y0013752D01*
X0069813Y0013302D01*
X0066866Y0013752D02*
X0066866Y0011050D01*
X0075393Y0011500D02*
X0075844Y0011050D01*
X0076744Y0011050D01*
X0077195Y0011500D01*
X0077195Y0012401D01*
X0076294Y0012401D01*
X0075393Y0013302D02*
X0075393Y0011500D01*
X0078340Y0011050D02*
X0078340Y0013752D01*
X0080141Y0011050D01*
X0080141Y0013752D01*
X0081286Y0013752D02*
X0082637Y0013752D01*
X0083088Y0013302D01*
X0083088Y0011500D01*
X0082637Y0011050D01*
X0081286Y0011050D01*
X0081286Y0013752D01*
X0077195Y0013302D02*
X0076744Y0013752D01*
X0075844Y0013752D01*
X0075393Y0013302D01*
X0086866Y0012852D02*
X0086866Y0011050D01*
X0088668Y0011050D02*
X0088668Y0012852D01*
X0087767Y0013752D01*
X0086866Y0012852D01*
X0086866Y0012401D02*
X0088668Y0012401D01*
X0089813Y0011500D02*
X0091615Y0013302D01*
X0091615Y0011500D01*
X0091164Y0011050D01*
X0090263Y0011050D01*
X0089813Y0011500D01*
X0089813Y0013302D01*
X0090263Y0013752D01*
X0091164Y0013752D01*
X0091615Y0013302D01*
X0096866Y0012852D02*
X0097767Y0013752D01*
X0098668Y0012852D01*
X0098668Y0011050D01*
X0099813Y0011050D02*
X0101615Y0011050D01*
X0100714Y0011050D02*
X0100714Y0013752D01*
X0099813Y0012852D01*
X0098668Y0012401D02*
X0096866Y0012401D01*
X0096866Y0012852D02*
X0096866Y0011050D01*
X0106866Y0011050D02*
X0106866Y0012852D01*
X0107767Y0013752D01*
X0108668Y0012852D01*
X0108668Y0011050D01*
X0109813Y0011050D02*
X0111615Y0012852D01*
X0111615Y0013302D01*
X0111164Y0013752D01*
X0110263Y0013752D01*
X0109813Y0013302D01*
X0108668Y0012401D02*
X0106866Y0012401D01*
X0109813Y0011050D02*
X0111615Y0011050D01*
X0116866Y0011050D02*
X0116866Y0012852D01*
X0117767Y0013752D01*
X0118668Y0012852D01*
X0118668Y0011050D01*
X0119813Y0011500D02*
X0120263Y0011050D01*
X0121164Y0011050D01*
X0121615Y0011500D01*
X0121615Y0011951D01*
X0121164Y0012401D01*
X0120714Y0012401D01*
X0121164Y0012401D02*
X0121615Y0012852D01*
X0121615Y0013302D01*
X0121164Y0013752D01*
X0120263Y0013752D01*
X0119813Y0013302D01*
X0118668Y0012401D02*
X0116866Y0012401D01*
X0126866Y0012401D02*
X0128668Y0012401D01*
X0128668Y0012852D02*
X0128668Y0011050D01*
X0126866Y0011050D02*
X0126866Y0012852D01*
X0127767Y0013752D01*
X0128668Y0012852D01*
X0129813Y0012401D02*
X0131615Y0012401D01*
X0131164Y0011050D02*
X0131164Y0013752D01*
X0129813Y0012401D01*
X0136866Y0012401D02*
X0138668Y0012401D01*
X0138668Y0012852D02*
X0138668Y0011050D01*
X0139813Y0011500D02*
X0140263Y0011050D01*
X0141164Y0011050D01*
X0141615Y0011500D01*
X0141615Y0012401D01*
X0141164Y0012852D01*
X0140714Y0012852D01*
X0139813Y0012401D01*
X0139813Y0013752D01*
X0141615Y0013752D01*
X0138668Y0012852D02*
X0137767Y0013752D01*
X0136866Y0012852D01*
X0136866Y0011050D01*
X0145393Y0011500D02*
X0145844Y0011050D01*
X0146744Y0011050D01*
X0147195Y0011500D01*
X0147195Y0011951D01*
X0146744Y0012401D01*
X0145844Y0012401D01*
X0145393Y0012852D01*
X0145393Y0013302D01*
X0145844Y0013752D01*
X0146744Y0013752D01*
X0147195Y0013302D01*
X0148340Y0013302D02*
X0148340Y0011500D01*
X0148790Y0011050D01*
X0149691Y0011050D01*
X0150141Y0011500D01*
X0151286Y0011050D02*
X0151286Y0013752D01*
X0150141Y0013302D02*
X0149691Y0013752D01*
X0148790Y0013752D01*
X0148340Y0013302D01*
X0151737Y0012401D02*
X0153088Y0011050D01*
X0151286Y0011951D02*
X0153088Y0013752D01*
X0156866Y0013752D02*
X0157767Y0012852D01*
X0158668Y0013752D01*
X0158668Y0011050D01*
X0159813Y0011500D02*
X0160263Y0011050D01*
X0161164Y0011050D01*
X0161615Y0011500D01*
X0161615Y0013302D01*
X0161164Y0013752D01*
X0160263Y0013752D01*
X0159813Y0013302D01*
X0159813Y0011500D01*
X0156866Y0011050D02*
X0156866Y0013752D01*
X0167358Y0013752D02*
X0167358Y0011050D01*
X0169159Y0011050D02*
X0169159Y0013752D01*
X0168258Y0012852D01*
X0167358Y0013752D01*
X0170304Y0013752D02*
X0171205Y0013752D01*
X0170754Y0013752D02*
X0170754Y0011050D01*
X0170304Y0011050D02*
X0171205Y0011050D01*
X0176866Y0011050D02*
X0176866Y0013752D01*
X0178218Y0013752D01*
X0178668Y0013302D01*
X0178668Y0012401D01*
X0178218Y0011951D01*
X0176866Y0011951D01*
X0177767Y0011951D02*
X0178668Y0011050D01*
X0179813Y0011050D02*
X0181615Y0013752D01*
X0179813Y0013752D02*
X0181615Y0011050D01*
X0187267Y0011050D02*
X0187267Y0013752D01*
X0186366Y0013752D02*
X0188168Y0013752D01*
X0189313Y0013752D02*
X0191115Y0011050D01*
X0189313Y0011050D02*
X0191115Y0013752D01*
X0196866Y0013302D02*
X0197317Y0013752D01*
X0198218Y0013752D01*
X0198668Y0013302D01*
X0198668Y0012852D01*
X0196866Y0011050D01*
X0198668Y0011050D01*
X0199813Y0011050D02*
X0201615Y0011050D01*
X0200714Y0011050D02*
X0200714Y0013752D01*
X0199813Y0012852D01*
X0204811Y0007555D02*
X0204811Y0006654D01*
X0205261Y0006203D01*
X0204811Y0005059D02*
X0204811Y0004158D01*
X0204811Y0004608D02*
X0207063Y0004608D01*
X0207513Y0004158D01*
X0207513Y0003707D01*
X0207063Y0003257D01*
X0207513Y0006203D02*
X0205711Y0008005D01*
X0205261Y0008005D01*
X0204811Y0007555D01*
X0207513Y0008005D02*
X0207513Y0006203D01*
X0240652Y0009452D02*
X0241103Y0009001D01*
X0241553Y0009001D01*
X0242003Y0009452D01*
X0242003Y0011703D01*
X0241553Y0011703D02*
X0242454Y0011703D01*
X0243599Y0010803D02*
X0244500Y0011703D01*
X0244500Y0009001D01*
X0245400Y0009001D02*
X0243599Y0009001D01*
X0227813Y0021203D02*
X0227813Y0023005D01*
X0227813Y0022104D02*
X0225111Y0022104D01*
X0226011Y0021203D01*
X0225561Y0069150D02*
X0225111Y0069600D01*
X0225111Y0070501D01*
X0225561Y0070952D01*
X0226011Y0070952D01*
X0227813Y0069150D01*
X0227813Y0070952D01*
X0227813Y0072097D02*
X0226011Y0073898D01*
X0225561Y0073898D01*
X0225111Y0073448D01*
X0225111Y0072547D01*
X0225561Y0072097D01*
X0227813Y0072097D02*
X0227813Y0073898D01*
X0203088Y0079050D02*
X0203088Y0080852D01*
X0202187Y0081752D01*
X0201286Y0080852D01*
X0201286Y0079050D01*
X0200141Y0079500D02*
X0200141Y0081302D01*
X0199691Y0081752D01*
X0198340Y0081752D01*
X0198340Y0079050D01*
X0199691Y0079050D01*
X0200141Y0079500D01*
X0201286Y0080401D02*
X0203088Y0080401D01*
X0197195Y0079951D02*
X0197195Y0079500D01*
X0196744Y0079050D01*
X0195844Y0079050D01*
X0195393Y0079500D01*
X0195844Y0080401D02*
X0196744Y0080401D01*
X0197195Y0079951D01*
X0197195Y0081302D02*
X0196744Y0081752D01*
X0195844Y0081752D01*
X0195393Y0081302D01*
X0195393Y0080852D01*
X0195844Y0080401D01*
X0193088Y0079050D02*
X0191286Y0079050D01*
X0191286Y0081752D01*
X0190141Y0081302D02*
X0189691Y0081752D01*
X0188790Y0081752D01*
X0188340Y0081302D01*
X0188340Y0079500D01*
X0188790Y0079050D01*
X0189691Y0079050D01*
X0190141Y0079500D01*
X0187195Y0079500D02*
X0187195Y0079951D01*
X0186744Y0080401D01*
X0185844Y0080401D01*
X0185393Y0080852D01*
X0185393Y0081302D01*
X0185844Y0081752D01*
X0186744Y0081752D01*
X0187195Y0081302D01*
X0187195Y0079500D02*
X0186744Y0079050D01*
X0185844Y0079050D01*
X0185393Y0079500D01*
X0181615Y0080401D02*
X0179813Y0080401D01*
X0181164Y0081752D01*
X0181164Y0079050D01*
X0178668Y0079050D02*
X0176866Y0079050D01*
X0177767Y0079050D02*
X0177767Y0081752D01*
X0176866Y0080852D01*
X0171615Y0080852D02*
X0171615Y0081302D01*
X0171164Y0081752D01*
X0170263Y0081752D01*
X0169813Y0081302D01*
X0168668Y0081302D02*
X0168668Y0080852D01*
X0168218Y0080401D01*
X0168668Y0079951D01*
X0168668Y0079500D01*
X0168218Y0079050D01*
X0167317Y0079050D01*
X0166866Y0079500D01*
X0167767Y0080401D02*
X0168218Y0080401D01*
X0168668Y0081302D02*
X0168218Y0081752D01*
X0167317Y0081752D01*
X0166866Y0081302D01*
X0169813Y0079050D02*
X0171615Y0080852D01*
X0171615Y0079050D02*
X0169813Y0079050D01*
X0161615Y0079500D02*
X0161164Y0079050D01*
X0160263Y0079050D01*
X0159813Y0079500D01*
X0159813Y0080401D02*
X0160714Y0080852D01*
X0161164Y0080852D01*
X0161615Y0080401D01*
X0161615Y0079500D01*
X0159813Y0080401D02*
X0159813Y0081752D01*
X0161615Y0081752D01*
X0157767Y0081752D02*
X0156866Y0080852D01*
X0157767Y0081752D02*
X0157767Y0079050D01*
X0156866Y0079050D02*
X0158668Y0079050D01*
X0151615Y0079500D02*
X0151164Y0079050D01*
X0150263Y0079050D01*
X0149813Y0079500D01*
X0148668Y0079500D02*
X0148218Y0079050D01*
X0147317Y0079050D01*
X0146866Y0079500D01*
X0147767Y0080401D02*
X0148218Y0080401D01*
X0148668Y0079951D01*
X0148668Y0079500D01*
X0148218Y0080401D02*
X0148668Y0080852D01*
X0148668Y0081302D01*
X0148218Y0081752D01*
X0147317Y0081752D01*
X0146866Y0081302D01*
X0149813Y0081302D02*
X0150263Y0081752D01*
X0151164Y0081752D01*
X0151615Y0081302D01*
X0151615Y0080852D01*
X0151164Y0080401D01*
X0151615Y0079951D01*
X0151615Y0079500D01*
X0151164Y0080401D02*
X0150714Y0080401D01*
X0141615Y0081302D02*
X0139813Y0079500D01*
X0139813Y0079050D01*
X0138668Y0079050D02*
X0136866Y0079050D01*
X0138668Y0080852D01*
X0138668Y0081302D01*
X0138218Y0081752D01*
X0137317Y0081752D01*
X0136866Y0081302D01*
X0139813Y0081752D02*
X0141615Y0081752D01*
X0141615Y0081302D01*
X0131615Y0081302D02*
X0131164Y0081752D01*
X0130263Y0081752D01*
X0129813Y0081302D01*
X0131615Y0081302D02*
X0131615Y0080852D01*
X0129813Y0079050D01*
X0131615Y0079050D01*
X0128668Y0079050D02*
X0126866Y0079050D01*
X0127767Y0079050D02*
X0127767Y0081752D01*
X0126866Y0080852D01*
X0121615Y0080852D02*
X0121164Y0080401D01*
X0121615Y0079951D01*
X0121615Y0079500D01*
X0121164Y0079050D01*
X0120263Y0079050D01*
X0119813Y0079500D01*
X0118668Y0079050D02*
X0116866Y0079050D01*
X0117767Y0079050D02*
X0117767Y0081752D01*
X0116866Y0080852D01*
X0119813Y0081302D02*
X0120263Y0081752D01*
X0121164Y0081752D01*
X0121615Y0081302D01*
X0121615Y0080852D01*
X0121164Y0080401D02*
X0120714Y0080401D01*
X0113088Y0079951D02*
X0113088Y0079500D01*
X0112637Y0079050D01*
X0111286Y0079050D01*
X0111286Y0081752D01*
X0112637Y0081752D01*
X0113088Y0081302D01*
X0113088Y0080852D01*
X0112637Y0080401D01*
X0111286Y0080401D01*
X0110141Y0079951D02*
X0110141Y0079500D01*
X0109691Y0079050D01*
X0108790Y0079050D01*
X0108340Y0079500D01*
X0108790Y0080401D02*
X0109691Y0080401D01*
X0110141Y0079951D01*
X0110141Y0081302D02*
X0109691Y0081752D01*
X0108790Y0081752D01*
X0108340Y0081302D01*
X0108340Y0080852D01*
X0108790Y0080401D01*
X0107195Y0079500D02*
X0107195Y0081752D01*
X0105393Y0081752D02*
X0105393Y0079500D01*
X0105844Y0079050D01*
X0106744Y0079050D01*
X0107195Y0079500D01*
X0112637Y0080401D02*
X0113088Y0079951D01*
X0101615Y0079050D02*
X0101615Y0081752D01*
X0099813Y0081752D02*
X0101615Y0079050D01*
X0099813Y0079050D02*
X0099813Y0081752D01*
X0098668Y0081752D02*
X0096866Y0081752D01*
X0096866Y0079050D01*
X0098668Y0079050D01*
X0097767Y0080401D02*
X0096866Y0080401D01*
X0093088Y0081752D02*
X0091286Y0081752D01*
X0092187Y0081752D02*
X0092187Y0079050D01*
X0090141Y0079050D02*
X0090141Y0080852D01*
X0089240Y0081752D01*
X0088340Y0080852D01*
X0088340Y0079050D01*
X0087195Y0079500D02*
X0087195Y0079951D01*
X0086744Y0080401D01*
X0085393Y0080401D01*
X0085393Y0079050D02*
X0086744Y0079050D01*
X0087195Y0079500D01*
X0086744Y0080401D02*
X0087195Y0080852D01*
X0087195Y0081302D01*
X0086744Y0081752D01*
X0085393Y0081752D01*
X0085393Y0079050D01*
X0088340Y0080401D02*
X0090141Y0080401D01*
X0084313Y0084600D02*
X0083863Y0084150D01*
X0084313Y0084600D02*
X0084313Y0085051D01*
X0083863Y0085501D01*
X0081611Y0085501D01*
X0081611Y0085051D02*
X0081611Y0085952D01*
X0082061Y0087097D02*
X0081611Y0087547D01*
X0081611Y0088448D01*
X0082061Y0088898D01*
X0082511Y0088898D01*
X0082962Y0088448D01*
X0083412Y0088898D01*
X0083863Y0088898D01*
X0084313Y0088448D01*
X0084313Y0087547D01*
X0083863Y0087097D01*
X0082962Y0087997D02*
X0082962Y0088448D01*
X0036704Y0060152D02*
X0036254Y0060602D01*
X0034903Y0060602D01*
X0034903Y0057900D01*
X0036254Y0057900D01*
X0036704Y0058350D01*
X0036704Y0060152D01*
X0033758Y0060602D02*
X0031956Y0060602D01*
X0031956Y0057900D01*
X0033758Y0057900D01*
X0032857Y0059251D02*
X0031956Y0059251D01*
X0030811Y0057900D02*
X0029010Y0057900D01*
X0029010Y0060602D01*
X0027865Y0060602D02*
X0027865Y0058801D01*
X0026964Y0057900D01*
X0026063Y0058801D01*
X0026063Y0060602D01*
X0051866Y0059352D02*
X0051866Y0056650D01*
X0051866Y0057551D02*
X0053218Y0057551D01*
X0053668Y0058001D01*
X0053668Y0058902D01*
X0053218Y0059352D01*
X0051866Y0059352D01*
X0052767Y0057551D02*
X0053668Y0056650D01*
X0054813Y0056650D02*
X0056615Y0056650D01*
X0055714Y0056650D02*
X0055714Y0059352D01*
X0054813Y0058452D01*
X0033307Y0034902D02*
X0031956Y0034902D01*
X0031956Y0032200D01*
X0033307Y0032200D01*
X0033758Y0032650D01*
X0033758Y0034452D01*
X0033307Y0034902D01*
X0030811Y0034902D02*
X0030811Y0032200D01*
X0029010Y0034902D01*
X0029010Y0032200D01*
X0027865Y0032650D02*
X0027865Y0033551D01*
X0026964Y0033551D01*
X0027865Y0032650D02*
X0027414Y0032200D01*
X0026513Y0032200D01*
X0026063Y0032650D01*
X0026063Y0034452D01*
X0026513Y0034902D01*
X0027414Y0034902D01*
X0027865Y0034452D01*
D11*
X0077799Y0028790D02*
X0077793Y0028466D01*
X0077803Y0028142D01*
X0077836Y0027773D01*
X0077883Y0027452D01*
X0077947Y0027134D01*
X0078040Y0026776D01*
X0078155Y0026423D01*
X0078290Y0026078D01*
X0078426Y0025784D01*
X0078598Y0025456D01*
X0078791Y0025139D01*
X0079001Y0024834D01*
X0079200Y0024578D01*
X0079443Y0024298D01*
X0079702Y0024033D01*
X0079976Y0023784D01*
X0080228Y0023580D01*
X0080528Y0023363D01*
X0080762Y0023212D01*
X0081002Y0023072D01*
X0081248Y0022943D01*
X0081543Y0022807D01*
X0081800Y0022703D01*
X0082062Y0022611D01*
X0082328Y0022530D01*
X0082643Y0022451D01*
X0082916Y0022397D01*
X0087933Y0021504D01*
X0088254Y0021464D01*
X0088578Y0021440D01*
X0088902Y0021434D01*
X0089226Y0021444D01*
X0089549Y0021471D01*
X0089916Y0021523D01*
X0090279Y0021597D01*
X0090593Y0021680D01*
X0090945Y0021795D01*
X0091247Y0021912D01*
X0091584Y0022066D01*
X0091912Y0022239D01*
X0092229Y0022431D01*
X0092496Y0022615D01*
X0092790Y0022841D01*
X0093070Y0023084D01*
X0093335Y0023343D01*
X0093584Y0023617D01*
X0093816Y0023906D01*
X0094004Y0024170D01*
X0094178Y0024443D01*
X0094316Y0024685D01*
X0094462Y0024974D01*
X0094593Y0025271D01*
X0094709Y0025574D01*
X0094808Y0025882D01*
X0094891Y0026196D01*
X0094958Y0026513D01*
X0095837Y0031439D01*
X0095890Y0031805D01*
X0095915Y0032082D01*
X0095926Y0032314D01*
X0095928Y0032591D01*
X0095921Y0032823D01*
X0095900Y0033100D01*
X0095873Y0033330D01*
X0095829Y0033605D01*
X0095783Y0033832D01*
X0095680Y0034235D01*
X0095533Y0034675D01*
X0095353Y0035102D01*
X0095143Y0035514D01*
X0094902Y0035910D01*
X0094633Y0036287D01*
X0094337Y0036643D01*
X0094015Y0036976D01*
X0093670Y0037285D01*
X0093302Y0037566D01*
X0092954Y0037796D01*
X0092550Y0038022D01*
X0092173Y0038200D01*
X0091741Y0038367D01*
X0091297Y0038500D01*
X0090845Y0038601D01*
X0090813Y0038607D02*
X0085933Y0039477D01*
X0085659Y0039519D01*
X0085244Y0039559D01*
X0084781Y0039571D01*
X0084364Y0039552D01*
X0084134Y0039529D01*
X0083904Y0039497D01*
X0083585Y0039439D01*
X0083270Y0039363D01*
X0082959Y0039271D01*
X0082653Y0039163D01*
X0082354Y0039040D01*
X0082061Y0038900D01*
X0081816Y0038769D01*
X0081538Y0038602D01*
X0081269Y0038421D01*
X0081046Y0038255D01*
X0080796Y0038049D01*
X0080557Y0037830D01*
X0080329Y0037599D01*
X0080114Y0037356D01*
X0079912Y0037103D01*
X0079723Y0036839D01*
X0079572Y0036606D01*
X0079432Y0036366D01*
X0079283Y0036078D01*
X0079167Y0035825D01*
X0079063Y0035568D01*
X0078970Y0035305D01*
X0078889Y0035040D01*
X0078810Y0034725D01*
X0078755Y0034453D01*
X0077863Y0029435D01*
X0077823Y0029114D01*
X0077799Y0028790D01*
X0081279Y0028647D02*
X0081295Y0028831D01*
X0082186Y0033849D01*
X0082249Y0034119D01*
X0082306Y0034295D01*
X0082356Y0034425D01*
X0082477Y0034675D01*
X0082547Y0034795D01*
X0082649Y0034950D01*
X0082823Y0035167D01*
X0083017Y0035365D01*
X0083122Y0035456D01*
X0083268Y0035570D01*
X0083422Y0035673D01*
X0083542Y0035744D01*
X0083706Y0035829D01*
X0083834Y0035885D01*
X0084007Y0035949D01*
X0084185Y0036002D01*
X0084320Y0036033D01*
X0084503Y0036064D01*
X0084687Y0036082D01*
X0084826Y0036087D01*
X0085012Y0036083D01*
X0085196Y0036066D01*
X0090259Y0035166D01*
X0090439Y0035124D01*
X0090572Y0035084D01*
X0090832Y0034984D01*
X0090998Y0034903D01*
X0091198Y0034785D01*
X0091387Y0034652D01*
X0091564Y0034502D01*
X0091727Y0034338D01*
X0091876Y0034161D01*
X0092010Y0033972D01*
X0092127Y0033772D01*
X0092227Y0033563D01*
X0092309Y0033347D01*
X0092372Y0033124D01*
X0092416Y0032896D01*
X0092440Y0032666D01*
X0092445Y0032481D01*
X0092434Y0032250D01*
X0092403Y0032020D01*
X0092401Y0032007D02*
X0091529Y0027127D01*
X0091476Y0026902D01*
X0091420Y0026725D01*
X0091314Y0026468D01*
X0091182Y0026224D01*
X0091026Y0025994D01*
X0090846Y0025782D01*
X0090646Y0025589D01*
X0090539Y0025501D01*
X0090390Y0025391D01*
X0090153Y0025246D01*
X0089902Y0025126D01*
X0089729Y0025061D01*
X0089596Y0025019D01*
X0089416Y0024975D01*
X0089234Y0024944D01*
X0089095Y0024928D01*
X0088910Y0024918D01*
X0088725Y0024921D01*
X0088541Y0024937D01*
X0088357Y0024964D01*
X0083523Y0025826D01*
X0083252Y0025888D01*
X0083076Y0025945D01*
X0082946Y0025995D01*
X0082696Y0026116D01*
X0082459Y0026261D01*
X0082347Y0026343D01*
X0082204Y0026461D01*
X0082102Y0026555D01*
X0081973Y0026689D01*
X0081855Y0026831D01*
X0081772Y0026943D01*
X0081671Y0027098D01*
X0081602Y0027218D01*
X0081482Y0027469D01*
X0081417Y0027643D01*
X0081364Y0027820D01*
X0081323Y0028001D01*
X0081301Y0028138D01*
X0081285Y0028276D01*
X0081276Y0028461D01*
X0081279Y0028647D01*
X0097465Y0027872D02*
X0097482Y0027548D01*
X0097515Y0027225D01*
X0097566Y0026905D01*
X0097633Y0026588D01*
X0097730Y0026230D01*
X0097833Y0025923D01*
X0097952Y0025621D01*
X0098106Y0025284D01*
X0098281Y0024958D01*
X0098475Y0024642D01*
X0098659Y0024375D01*
X0098887Y0024083D01*
X0099132Y0023805D01*
X0099393Y0023542D01*
X0099633Y0023324D01*
X0099921Y0023091D01*
X0100223Y0022876D01*
X0100497Y0022703D01*
X0100820Y0022522D01*
X0101154Y0022362D01*
X0101411Y0022254D01*
X0101672Y0022159D01*
X0101937Y0022075D01*
X0102250Y0021993D01*
X0102522Y0021936D01*
X0102796Y0021891D01*
X0103072Y0021858D01*
X0103396Y0021835D01*
X0103674Y0021830D01*
X0108769Y0021832D01*
X0109093Y0021849D01*
X0109415Y0021882D01*
X0109735Y0021933D01*
X0110053Y0022001D01*
X0110410Y0022098D01*
X0110718Y0022201D01*
X0111019Y0022319D01*
X0111356Y0022474D01*
X0111683Y0022649D01*
X0111998Y0022843D01*
X0112302Y0023056D01*
X0112557Y0023256D01*
X0112835Y0023501D01*
X0113098Y0023761D01*
X0113315Y0024002D01*
X0113548Y0024290D01*
X0113763Y0024592D01*
X0113960Y0024906D01*
X0114116Y0025190D01*
X0114277Y0025524D01*
X0114401Y0025824D01*
X0114509Y0026129D01*
X0114600Y0026440D01*
X0114675Y0026756D01*
X0114734Y0027075D01*
X0114775Y0027396D01*
X0114797Y0027673D01*
X0114808Y0027997D01*
X0114808Y0033000D01*
X0114795Y0033370D01*
X0114771Y0033647D01*
X0114742Y0033877D01*
X0114695Y0034151D01*
X0114647Y0034377D01*
X0114578Y0034646D01*
X0114511Y0034868D01*
X0114420Y0035131D01*
X0114335Y0035346D01*
X0114162Y0035725D01*
X0113940Y0036132D01*
X0113689Y0036521D01*
X0113409Y0036890D01*
X0113103Y0037238D01*
X0112772Y0037562D01*
X0112418Y0037860D01*
X0112043Y0038132D01*
X0111649Y0038374D01*
X0111237Y0038587D01*
X0110854Y0038752D01*
X0110417Y0038904D01*
X0109969Y0039023D01*
X0109514Y0039108D01*
X0109100Y0039155D01*
X0108637Y0039174D01*
X0108604Y0039174D02*
X0103647Y0039174D01*
X0103369Y0039167D01*
X0102954Y0039134D01*
X0102496Y0039063D01*
X0102090Y0038971D01*
X0101647Y0038836D01*
X0101343Y0038722D01*
X0101046Y0038593D01*
X0100756Y0038448D01*
X0100474Y0038288D01*
X0100201Y0038113D01*
X0099937Y0037924D01*
X0099719Y0037752D01*
X0099475Y0037539D01*
X0099242Y0037314D01*
X0099051Y0037111D01*
X0098841Y0036864D01*
X0098644Y0036607D01*
X0098460Y0036340D01*
X0098291Y0036063D01*
X0098136Y0035779D01*
X0097996Y0035486D01*
X0097889Y0035230D01*
X0097793Y0034969D01*
X0097710Y0034704D01*
X0097627Y0034390D01*
X0097570Y0034118D01*
X0097524Y0033844D01*
X0097492Y0033568D01*
X0097469Y0033245D01*
X0097463Y0032967D01*
X0097465Y0027872D01*
X0100947Y0028042D02*
X0100960Y0027765D01*
X0100984Y0027581D01*
X0101011Y0027445D01*
X0101085Y0027177D01*
X0101186Y0026918D01*
X0101246Y0026793D01*
X0101337Y0026632D01*
X0101492Y0026401D01*
X0101609Y0026257D01*
X0101702Y0026154D01*
X0101835Y0026025D01*
X0101940Y0025934D01*
X0102087Y0025821D01*
X0102201Y0025743D01*
X0102361Y0025648D01*
X0102526Y0025565D01*
X0102697Y0025492D01*
X0102827Y0025446D01*
X0102961Y0025406D01*
X0103141Y0025364D01*
X0103324Y0025335D01*
X0103508Y0025318D01*
X0103694Y0025313D01*
X0108650Y0025314D01*
X0108835Y0025323D01*
X0108973Y0025338D01*
X0109246Y0025390D01*
X0109468Y0025454D01*
X0109642Y0025519D01*
X0109852Y0025617D01*
X0110053Y0025732D01*
X0110243Y0025864D01*
X0110422Y0026011D01*
X0110587Y0026173D01*
X0110738Y0026349D01*
X0110874Y0026536D01*
X0110994Y0026734D01*
X0111096Y0026942D01*
X0111180Y0027158D01*
X0111234Y0027335D01*
X0111284Y0027561D01*
X0111314Y0027791D01*
X0111325Y0028022D01*
X0111325Y0028034D02*
X0111324Y0032990D01*
X0111313Y0033221D01*
X0111282Y0033451D01*
X0111219Y0033721D01*
X0111128Y0033984D01*
X0111011Y0034236D01*
X0110869Y0034475D01*
X0110703Y0034698D01*
X0110516Y0034903D01*
X0110309Y0035088D01*
X0110084Y0035251D01*
X0109926Y0035347D01*
X0109761Y0035432D01*
X0109591Y0035505D01*
X0109460Y0035552D01*
X0109327Y0035593D01*
X0109147Y0035636D01*
X0108964Y0035667D01*
X0108780Y0035685D01*
X0108595Y0035691D01*
X0103685Y0035691D01*
X0103407Y0035678D01*
X0103269Y0035662D01*
X0103087Y0035628D01*
X0102819Y0035555D01*
X0102560Y0035455D01*
X0102435Y0035395D01*
X0102273Y0035305D01*
X0102117Y0035204D01*
X0102005Y0035122D01*
X0101897Y0035034D01*
X0101761Y0034909D01*
X0101633Y0034775D01*
X0101544Y0034669D01*
X0101381Y0034443D01*
X0101286Y0034284D01*
X0101202Y0034119D01*
X0101129Y0033949D01*
X0101082Y0033818D01*
X0101042Y0033685D01*
X0100999Y0033505D01*
X0100969Y0033322D01*
X0100952Y0033138D01*
X0100947Y0032952D01*
X0100947Y0028042D01*
X0119995Y0022407D02*
X0120009Y0022316D01*
X0120033Y0022227D01*
X0120103Y0022055D01*
X0120202Y0021899D01*
X0120293Y0021794D01*
X0120361Y0021731D01*
X0120512Y0021624D01*
X0120679Y0021545D01*
X0120858Y0021496D01*
X0121042Y0021481D01*
X0121226Y0021499D01*
X0121404Y0021549D01*
X0121570Y0021631D01*
X0121647Y0021682D01*
X0121754Y0021772D01*
X0121848Y0021874D01*
X0121903Y0021948D01*
X0121993Y0022110D01*
X0122053Y0022285D01*
X0122082Y0022467D01*
X0122061Y0069292D01*
X0122047Y0069477D01*
X0122015Y0069659D01*
X0121965Y0069837D01*
X0121897Y0070010D01*
X0121811Y0070174D01*
X0121710Y0070329D01*
X0121593Y0070473D01*
X0121463Y0070604D01*
X0121320Y0070722D01*
X0121165Y0070824D01*
X0121002Y0070911D01*
X0120830Y0070980D01*
X0120652Y0071031D01*
X0120516Y0071058D01*
X0120332Y0071077D01*
X0120146Y0071077D01*
X0119869Y0071064D01*
X0119731Y0071048D01*
X0119549Y0071011D01*
X0119373Y0070956D01*
X0119202Y0070883D01*
X0119040Y0070794D01*
X0118888Y0070688D01*
X0118748Y0070567D01*
X0118590Y0070398D01*
X0118480Y0070249D01*
X0118386Y0070089D01*
X0118308Y0069921D01*
X0118248Y0069746D01*
X0118206Y0069566D01*
X0118183Y0069382D01*
X0118178Y0069197D01*
X0119995Y0022407D01*
X0123969Y0023946D02*
X0124036Y0023824D01*
X0124089Y0023749D01*
X0124214Y0023612D01*
X0124360Y0023499D01*
X0124525Y0023415D01*
X0124702Y0023361D01*
X0124886Y0023339D01*
X0125070Y0023352D01*
X0125250Y0023396D01*
X0125336Y0023430D01*
X0125459Y0023495D01*
X0125572Y0023575D01*
X0125642Y0023636D01*
X0125764Y0023775D01*
X0125859Y0023934D01*
X0125926Y0024106D01*
X0135777Y0069883D01*
X0135803Y0070066D01*
X0135810Y0070251D01*
X0135798Y0070436D01*
X0135768Y0070619D01*
X0135719Y0070798D01*
X0135652Y0070970D01*
X0135569Y0071135D01*
X0135469Y0071291D01*
X0135353Y0071436D01*
X0135224Y0071569D01*
X0135082Y0071688D01*
X0134929Y0071792D01*
X0134766Y0071880D01*
X0134638Y0071934D01*
X0134462Y0071992D01*
X0134281Y0072031D01*
X0134007Y0072076D01*
X0133869Y0072090D01*
X0133684Y0072092D01*
X0133499Y0072076D01*
X0133318Y0072040D01*
X0133140Y0071987D01*
X0132969Y0071916D01*
X0132807Y0071827D01*
X0132617Y0071695D01*
X0132478Y0071572D01*
X0132352Y0071436D01*
X0132241Y0071288D01*
X0132145Y0071130D01*
X0132066Y0070962D01*
X0132005Y0070788D01*
X0131961Y0070608D01*
X0123874Y0024487D01*
X0123868Y0024394D01*
X0123872Y0024302D01*
X0123905Y0024120D01*
X0123969Y0023946D01*
X0111999Y0041883D02*
X0111683Y0041689D01*
X0111356Y0041514D01*
X0111020Y0041359D01*
X0110718Y0041240D01*
X0110411Y0041137D01*
X0110053Y0041040D01*
X0109736Y0040973D01*
X0109416Y0040922D01*
X0109093Y0040888D01*
X0108770Y0040871D01*
X0103674Y0040869D01*
X0103396Y0040875D01*
X0103073Y0040897D01*
X0102797Y0040930D01*
X0102523Y0040975D01*
X0102251Y0041032D01*
X0101982Y0041102D01*
X0101672Y0041198D01*
X0101411Y0041294D01*
X0101155Y0041401D01*
X0100821Y0041562D01*
X0100497Y0041742D01*
X0100223Y0041915D01*
X0099922Y0042130D01*
X0099633Y0042363D01*
X0099393Y0042581D01*
X0099132Y0042844D01*
X0098887Y0043122D01*
X0098660Y0043414D01*
X0098475Y0043681D01*
X0098281Y0043997D01*
X0098106Y0044323D01*
X0097952Y0044660D01*
X0097833Y0044962D01*
X0097730Y0045269D01*
X0097633Y0045627D01*
X0097566Y0045944D01*
X0097516Y0046264D01*
X0097482Y0046587D01*
X0097465Y0046911D01*
X0097463Y0052006D01*
X0097469Y0052284D01*
X0097492Y0052607D01*
X0097524Y0052883D01*
X0097570Y0053157D01*
X0097627Y0053429D01*
X0097710Y0053743D01*
X0097793Y0054008D01*
X0097889Y0054269D01*
X0097996Y0054525D01*
X0098136Y0054818D01*
X0098291Y0055103D01*
X0098460Y0055379D01*
X0098644Y0055646D01*
X0098841Y0055904D01*
X0099051Y0056150D01*
X0099241Y0056353D01*
X0099475Y0056578D01*
X0099719Y0056791D01*
X0099937Y0056964D01*
X0100201Y0057152D01*
X0100474Y0057327D01*
X0100756Y0057487D01*
X0101046Y0057632D01*
X0101343Y0057762D01*
X0101646Y0057876D01*
X0102090Y0058010D01*
X0102496Y0058103D01*
X0102954Y0058173D01*
X0103369Y0058207D01*
X0103647Y0058214D01*
X0108604Y0058214D01*
X0108636Y0058214D02*
X0109099Y0058194D01*
X0109513Y0058147D01*
X0109969Y0058062D01*
X0110416Y0057944D01*
X0110854Y0057792D01*
X0111237Y0057627D01*
X0111648Y0057414D01*
X0112042Y0057171D01*
X0112417Y0056900D01*
X0112772Y0056601D01*
X0113103Y0056278D01*
X0113409Y0055930D01*
X0113688Y0055561D01*
X0113940Y0055172D01*
X0114162Y0054765D01*
X0114335Y0054386D01*
X0114420Y0054171D01*
X0114511Y0053908D01*
X0114578Y0053687D01*
X0114647Y0053417D01*
X0114695Y0053191D01*
X0114742Y0052917D01*
X0114771Y0052687D01*
X0114795Y0052410D01*
X0114808Y0052040D01*
X0114808Y0047037D01*
X0114797Y0046713D01*
X0114775Y0046436D01*
X0114734Y0046115D01*
X0114675Y0045796D01*
X0114600Y0045480D01*
X0114509Y0045169D01*
X0114401Y0044864D01*
X0114277Y0044564D01*
X0114117Y0044230D01*
X0113960Y0043946D01*
X0113763Y0043632D01*
X0113548Y0043330D01*
X0113346Y0043077D01*
X0113098Y0042801D01*
X0112835Y0042540D01*
X0112557Y0042296D01*
X0112302Y0042095D01*
X0111999Y0041883D01*
X0109641Y0044557D02*
X0109468Y0044492D01*
X0109245Y0044428D01*
X0108972Y0044377D01*
X0108834Y0044361D01*
X0108649Y0044352D01*
X0103693Y0044352D01*
X0103507Y0044356D01*
X0103323Y0044374D01*
X0103140Y0044403D01*
X0102960Y0044445D01*
X0102826Y0044485D01*
X0102695Y0044531D01*
X0102525Y0044604D01*
X0102360Y0044687D01*
X0102201Y0044782D01*
X0102048Y0044888D01*
X0101939Y0044973D01*
X0101834Y0045065D01*
X0101701Y0045194D01*
X0101608Y0045297D01*
X0101492Y0045441D01*
X0101336Y0045671D01*
X0101246Y0045833D01*
X0101186Y0045958D01*
X0101084Y0046217D01*
X0101011Y0046485D01*
X0100984Y0046621D01*
X0100960Y0046805D01*
X0100947Y0047082D01*
X0100947Y0051992D01*
X0100952Y0052178D01*
X0100969Y0052362D01*
X0101000Y0052545D01*
X0101042Y0052725D01*
X0101082Y0052858D01*
X0101129Y0052989D01*
X0101202Y0053159D01*
X0101286Y0053324D01*
X0101381Y0053483D01*
X0101544Y0053708D01*
X0101634Y0053815D01*
X0101761Y0053949D01*
X0101863Y0054044D01*
X0102005Y0054162D01*
X0102156Y0054270D01*
X0102273Y0054345D01*
X0102435Y0054434D01*
X0102560Y0054494D01*
X0102820Y0054595D01*
X0103088Y0054668D01*
X0103224Y0054694D01*
X0103408Y0054718D01*
X0103685Y0054730D01*
X0108595Y0054730D01*
X0108781Y0054724D01*
X0108965Y0054706D01*
X0109148Y0054675D01*
X0109328Y0054632D01*
X0109461Y0054592D01*
X0109591Y0054544D01*
X0109761Y0054471D01*
X0109926Y0054386D01*
X0110085Y0054290D01*
X0110309Y0054127D01*
X0110516Y0053942D01*
X0110704Y0053737D01*
X0110869Y0053513D01*
X0111011Y0053275D01*
X0111128Y0053023D01*
X0111219Y0052760D01*
X0111282Y0052489D01*
X0111313Y0052260D01*
X0111324Y0052029D01*
X0111325Y0047073D01*
X0111325Y0047060D02*
X0111314Y0046828D01*
X0111284Y0046599D01*
X0111234Y0046373D01*
X0111180Y0046196D01*
X0111096Y0045980D01*
X0110993Y0045772D01*
X0110874Y0045574D01*
X0110738Y0045386D01*
X0110586Y0045211D01*
X0110421Y0045049D01*
X0110242Y0044902D01*
X0110052Y0044770D01*
X0109851Y0044655D01*
X0109641Y0044557D01*
X0095472Y0046199D02*
X0095504Y0046475D01*
X0095527Y0046799D01*
X0095533Y0047076D01*
X0095531Y0052172D01*
X0095514Y0052495D01*
X0095480Y0052818D01*
X0095430Y0053138D01*
X0095363Y0053455D01*
X0095265Y0053813D01*
X0095163Y0054120D01*
X0095044Y0054422D01*
X0094890Y0054759D01*
X0094715Y0055086D01*
X0094521Y0055401D01*
X0094336Y0055668D01*
X0094109Y0055960D01*
X0093864Y0056238D01*
X0093603Y0056502D01*
X0093363Y0056719D01*
X0093075Y0056952D01*
X0092773Y0057167D01*
X0092459Y0057364D01*
X0092175Y0057521D01*
X0091842Y0057682D01*
X0091585Y0057789D01*
X0091324Y0057884D01*
X0091015Y0057981D01*
X0090746Y0058050D01*
X0090474Y0058108D01*
X0090199Y0058153D01*
X0089923Y0058185D01*
X0089600Y0058208D01*
X0089322Y0058214D01*
X0084227Y0058212D01*
X0083903Y0058195D01*
X0083581Y0058161D01*
X0083260Y0058110D01*
X0082943Y0058043D01*
X0082586Y0057945D01*
X0082278Y0057843D01*
X0081977Y0057724D01*
X0081640Y0057569D01*
X0081313Y0057394D01*
X0080998Y0057200D01*
X0080694Y0056988D01*
X0080439Y0056787D01*
X0080161Y0056543D01*
X0079898Y0056282D01*
X0079681Y0056041D01*
X0079448Y0055753D01*
X0079233Y0055451D01*
X0079036Y0055137D01*
X0078879Y0054853D01*
X0078719Y0054519D01*
X0078595Y0054220D01*
X0078487Y0053914D01*
X0078396Y0053603D01*
X0078321Y0053288D01*
X0078262Y0052969D01*
X0078221Y0052647D01*
X0078198Y0052370D01*
X0078188Y0052046D01*
X0078188Y0047043D01*
X0078201Y0046673D01*
X0078225Y0046396D01*
X0078254Y0046167D01*
X0078301Y0045893D01*
X0078349Y0045666D01*
X0078418Y0045397D01*
X0078485Y0045175D01*
X0078576Y0044913D01*
X0078661Y0044697D01*
X0078834Y0044318D01*
X0079055Y0043911D01*
X0079307Y0043522D01*
X0079586Y0043153D01*
X0079892Y0042806D01*
X0080223Y0042482D01*
X0080577Y0042183D01*
X0080952Y0041911D01*
X0081347Y0041669D01*
X0081758Y0041456D01*
X0082141Y0041291D01*
X0082578Y0041139D01*
X0083026Y0041020D01*
X0083481Y0040935D01*
X0083895Y0040888D01*
X0084358Y0040868D01*
X0084393Y0040868D02*
X0089349Y0040868D01*
X0089627Y0040875D01*
X0090043Y0040909D01*
X0090500Y0040979D01*
X0090907Y0041072D01*
X0091350Y0041206D01*
X0091653Y0041320D01*
X0091951Y0041450D01*
X0092200Y0041574D01*
X0092483Y0041732D01*
X0092757Y0041904D01*
X0093022Y0042091D01*
X0093277Y0042291D01*
X0093522Y0042504D01*
X0093755Y0042729D01*
X0093945Y0042932D01*
X0094155Y0043179D01*
X0094352Y0043436D01*
X0094536Y0043703D01*
X0094705Y0043980D01*
X0094860Y0044265D01*
X0095000Y0044557D01*
X0095107Y0044814D01*
X0095203Y0045075D01*
X0095286Y0045340D01*
X0095369Y0045653D01*
X0095426Y0045925D01*
X0095472Y0046199D01*
X0092026Y0046722D02*
X0091996Y0046539D01*
X0091965Y0046404D01*
X0091913Y0046226D01*
X0091866Y0046095D01*
X0091794Y0045924D01*
X0091710Y0045759D01*
X0091614Y0045601D01*
X0091536Y0045486D01*
X0091423Y0045339D01*
X0091331Y0045235D01*
X0091201Y0045103D01*
X0091063Y0044979D01*
X0090954Y0044893D01*
X0090723Y0044739D01*
X0090561Y0044649D01*
X0090436Y0044589D01*
X0090177Y0044488D01*
X0089909Y0044415D01*
X0089727Y0044382D01*
X0089589Y0044365D01*
X0089311Y0044352D01*
X0084401Y0044352D01*
X0084216Y0044358D01*
X0084031Y0044376D01*
X0083849Y0044407D01*
X0083669Y0044450D01*
X0083536Y0044491D01*
X0083405Y0044538D01*
X0083235Y0044611D01*
X0083070Y0044696D01*
X0082912Y0044792D01*
X0082687Y0044955D01*
X0082480Y0045140D01*
X0082292Y0045345D01*
X0082127Y0045568D01*
X0081984Y0045807D01*
X0081867Y0046059D01*
X0081777Y0046321D01*
X0081714Y0046592D01*
X0081683Y0046821D01*
X0081671Y0047053D01*
X0081671Y0052009D01*
X0081671Y0052020D02*
X0081682Y0052251D01*
X0081712Y0052481D01*
X0081762Y0052707D01*
X0081815Y0052884D01*
X0081899Y0053100D01*
X0082002Y0053308D01*
X0082121Y0053506D01*
X0082257Y0053694D01*
X0082408Y0053869D01*
X0082573Y0054031D01*
X0082752Y0054179D01*
X0082942Y0054311D01*
X0083143Y0054426D01*
X0083353Y0054524D01*
X0083526Y0054589D01*
X0083748Y0054653D01*
X0084021Y0054705D01*
X0084160Y0054720D01*
X0084345Y0054730D01*
X0089301Y0054730D01*
X0089486Y0054726D01*
X0089671Y0054709D01*
X0089853Y0054679D01*
X0090034Y0054637D01*
X0090167Y0054598D01*
X0090298Y0054551D01*
X0090469Y0054479D01*
X0090634Y0054395D01*
X0090793Y0054301D01*
X0090908Y0054223D01*
X0091055Y0054110D01*
X0091160Y0054019D01*
X0091293Y0053889D01*
X0091416Y0053751D01*
X0091502Y0053642D01*
X0091658Y0053412D01*
X0091748Y0053250D01*
X0091809Y0053125D01*
X0091910Y0052867D01*
X0091984Y0052599D01*
X0092011Y0052462D01*
X0092035Y0052279D01*
X0092049Y0052001D01*
X0092049Y0047091D01*
X0092044Y0046906D01*
X0092026Y0046722D01*
D12*
X0133713Y0037471D02*
X0133713Y0036437D01*
X0134747Y0035403D01*
X0136816Y0035403D01*
X0137850Y0034368D01*
X0137850Y0033334D01*
X0136816Y0032300D01*
X0134747Y0032300D01*
X0133713Y0033334D01*
X0140158Y0033334D02*
X0141193Y0032300D01*
X0144295Y0032300D01*
X0144295Y0036437D01*
X0146604Y0035403D02*
X0147638Y0036437D01*
X0150741Y0036437D01*
X0153049Y0035403D02*
X0154084Y0036437D01*
X0156152Y0036437D01*
X0157186Y0035403D01*
X0157186Y0032300D01*
X0159495Y0032300D02*
X0161563Y0032300D01*
X0160529Y0032300D02*
X0160529Y0036437D01*
X0159495Y0036437D01*
X0160529Y0038505D02*
X0160529Y0039540D01*
X0153049Y0038505D02*
X0153049Y0032300D01*
X0150741Y0033334D02*
X0149707Y0034368D01*
X0147638Y0034368D01*
X0146604Y0035403D01*
X0149707Y0032300D02*
X0150741Y0033334D01*
X0149707Y0032300D02*
X0146604Y0032300D01*
X0140158Y0033334D02*
X0140158Y0036437D01*
X0137850Y0037471D02*
X0136816Y0038505D01*
X0134747Y0038505D01*
X0133713Y0037471D01*
X0133713Y0028005D02*
X0137850Y0028005D01*
X0133713Y0028005D02*
X0133713Y0021800D01*
X0140158Y0022834D02*
X0140158Y0024903D01*
X0141193Y0025937D01*
X0143261Y0025937D01*
X0144295Y0024903D01*
X0144295Y0023868D01*
X0140158Y0023868D01*
X0140158Y0022834D02*
X0141193Y0021800D01*
X0143261Y0021800D01*
X0146604Y0022834D02*
X0147638Y0023868D01*
X0150741Y0023868D01*
X0150741Y0024903D02*
X0150741Y0021800D01*
X0147638Y0021800D01*
X0146604Y0022834D01*
X0149707Y0025937D02*
X0150741Y0024903D01*
X0149707Y0025937D02*
X0147638Y0025937D01*
X0153049Y0025937D02*
X0155118Y0025937D01*
X0157346Y0024903D02*
X0158381Y0025937D01*
X0160449Y0025937D01*
X0161483Y0024903D01*
X0161483Y0021800D01*
X0163792Y0022834D02*
X0163792Y0024903D01*
X0164826Y0025937D01*
X0166895Y0025937D01*
X0167929Y0024903D01*
X0167929Y0023868D01*
X0163792Y0023868D01*
X0163792Y0022834D02*
X0164826Y0021800D01*
X0166895Y0021800D01*
X0170237Y0021800D02*
X0170237Y0025937D01*
X0170237Y0023868D02*
X0172306Y0025937D01*
X0173340Y0025937D01*
X0175609Y0021800D02*
X0177677Y0023868D01*
X0179746Y0021800D01*
X0179746Y0028005D01*
X0183088Y0028005D02*
X0183088Y0029040D01*
X0175609Y0028005D02*
X0175609Y0021800D01*
X0182054Y0021800D02*
X0184123Y0021800D01*
X0183088Y0021800D02*
X0183088Y0025937D01*
X0182054Y0025937D01*
X0186351Y0025937D02*
X0189454Y0025937D01*
X0190488Y0024903D01*
X0190488Y0021800D01*
X0192797Y0022834D02*
X0193831Y0021800D01*
X0196934Y0021800D01*
X0196934Y0020766D02*
X0196934Y0025937D01*
X0193831Y0025937D01*
X0192797Y0024903D01*
X0192797Y0022834D01*
X0195899Y0019732D02*
X0196934Y0020766D01*
X0195899Y0019732D02*
X0194865Y0019732D01*
X0186351Y0021800D02*
X0186351Y0025937D01*
X0157346Y0028005D02*
X0157346Y0021800D01*
X0155118Y0021800D02*
X0154084Y0022834D01*
X0154084Y0026971D01*
X0135781Y0024903D02*
X0133713Y0024903D01*
M02*
